<svg width="24" height="24" viewBox="0 0 24 24" fill="none" xmlns="http://www.w3.org/2000/svg">
<path d="M13.8 7.75C15.4569 7.75 16.8 6.40685 16.8 4.75C16.8 3.09315 15.4569 1.75 13.8 1.75C12.1432 1.75 10.8 3.09315 10.8 4.75C10.8 6.40685 12.1432 7.75 13.8 7.75Z" fill="#2B333B"/>
<path fill-rule="evenodd" clip-rule="evenodd" d="M6.31549 10.5993C5.98177 11.0164 5.70424 11.4892 5.4959 12.0034C5.35415 12.3533 5.28323 12.5283 5.24171 12.6005C5.04186 12.9479 4.86259 13.076 4.4929 13.1354C4.41607 13.1477 4.3004 13.1477 4.06906 13.1477C3.47864 13.1477 3 13.6744 3 14.3242V15.2911C3 15.9408 3.47864 16.4675 4.06906 16.4675H4.64907C4.79603 16.4675 4.86951 16.4675 4.91945 16.4727C5.25918 16.5079 5.44341 16.6176 5.65588 16.9115C5.68711 16.9547 5.75046 17.0614 5.87716 17.275C6.02244 17.5199 6.09508 17.6423 6.12072 17.6975C6.29668 18.0756 6.30188 18.3371 6.14113 18.7234C6.11771 18.7797 6.07373 18.8615 5.98576 19.025L5.81358 19.345C5.55682 19.8222 5.42844 20.0608 5.4851 20.2936C5.54177 20.5264 5.76134 20.6624 6.20049 20.9345L7.01661 21.4401C7.45576 21.7122 7.67534 21.8482 7.89153 21.7845C8.10772 21.7207 8.2361 21.4821 8.49286 21.0049L8.73645 20.5522C8.82378 20.3899 8.86744 20.3087 8.9028 20.2569C9.11156 19.9513 9.29469 19.8364 9.64005 19.7944C9.69853 19.7873 9.82915 19.7873 10.0904 19.7873H14.4721C14.7762 19.7873 14.9283 19.7873 15.0003 19.7982C15.3245 19.8469 15.49 19.9507 15.6933 20.2329C15.7384 20.2956 15.7907 20.3926 15.8951 20.5868L16.1201 21.0049C16.3768 21.4821 16.5052 21.7207 16.7214 21.7845C16.9376 21.8482 17.1572 21.7122 17.5963 21.4401L18.4124 20.9345C18.8516 20.6624 19.0712 20.5264 19.1278 20.2936C19.1845 20.0608 19.0561 19.8222 18.7994 19.345C18.5555 18.8917 18.4335 18.6651 18.3982 18.4659C18.3684 18.2978 18.3671 18.2311 18.3907 18.0619C18.4187 17.8612 18.5797 17.5322 18.9018 16.874C19.2834 16.0942 19.5 15.2021 19.5 14.2543C19.5 13.7167 19.4303 13.197 19.3004 12.7056C20.3069 12.5252 21.1543 11.809 21.4859 10.8142L21.5116 10.7372C21.6425 10.3442 21.4302 9.91949 21.0372 9.78851C20.6443 9.65752 20.2195 9.8699 20.0885 10.2629L20.0629 10.3398C19.8817 10.8834 19.373 11.25 18.8 11.25C18.7658 11.25 18.732 11.2523 18.699 11.2568C17.8038 9.73115 16.2451 8.72122 14.4721 8.72122H11.3424C11.1237 8.72122 11.0144 8.72122 10.908 8.6972C10.8016 8.67317 10.7011 8.62577 10.5001 8.53098L8.48168 7.57902C8.14815 7.42172 7.98139 7.34306 7.86253 7.31928C7.21468 7.18967 6.61538 7.72917 6.60244 8.45366C6.60007 8.58657 6.63707 8.78204 6.71108 9.17297C6.74047 9.32822 6.75517 9.40584 6.76077 9.46183C6.79474 9.80122 6.74617 10.0036 6.56431 10.2802C6.53432 10.3258 6.46132 10.4171 6.31549 10.5993ZM8.55005 12.4986C8.55005 12.912 8.21426 13.2472 7.80005 13.2472C7.38584 13.2472 7.05005 12.912 7.05005 12.4986C7.05005 12.0852 7.38584 11.75 7.80005 11.75C8.21426 11.75 8.55005 12.0852 8.55005 12.4986Z" fill="#2B333B"/>
</svg>
