<svg width="20" height="20" viewBox="0 0 20 20" fill="none" xmlns="http://www.w3.org/2000/svg">
<path d="M11.3153 6.08729C12.7444 6.08729 13.9028 4.94846 13.9028 3.54364C13.9028 2.13883 12.7444 1 11.3153 1C9.88621 1 8.72771 2.13883 8.72771 3.54364C8.72771 4.94846 9.88621 6.08729 11.3153 6.08729Z" fill="#2B333B"/>
<path fill-rule="evenodd" clip-rule="evenodd" d="M4.85968 8.50317C4.57185 8.85679 4.33246 9.25768 4.15277 9.69369C4.03051 9.99033 3.96934 10.1388 3.93352 10.2C3.76115 10.4945 3.60652 10.6031 3.28765 10.6534C3.22139 10.6639 3.12163 10.6639 2.92209 10.6639C2.41283 10.6639 2 11.1105 2 11.6614V12.4812C2 13.0321 2.41283 13.4787 2.92209 13.4787H3.42236C3.54911 13.4787 3.61249 13.4787 3.65556 13.4831C3.94859 13.5129 4.10749 13.606 4.29076 13.8551C4.31769 13.8917 4.37233 13.9823 4.48161 14.1634C4.60692 14.371 4.66957 14.4748 4.69169 14.5215C4.84346 14.8422 4.84794 15.0639 4.7093 15.3915C4.68909 15.4392 4.65116 15.5085 4.57528 15.6471L4.42678 15.9185C4.20532 16.3231 4.09459 16.5254 4.14346 16.7228C4.19233 16.9201 4.38172 17.0355 4.7605 17.2661L5.46442 17.6949C5.84319 17.9255 6.03258 18.0409 6.21905 17.9868C6.40552 17.9328 6.51625 17.7305 6.73771 17.3259L6.94782 16.942C7.02314 16.8044 7.0608 16.7356 7.0913 16.6917C7.27136 16.4325 7.42931 16.3351 7.72719 16.2995C7.77763 16.2935 7.89029 16.2935 8.11561 16.2935H11.8949C12.1572 16.2935 12.2884 16.2935 12.3505 16.3027C12.6302 16.344 12.7729 16.432 12.9482 16.6713C12.9872 16.7244 13.0322 16.8067 13.1223 16.9713L13.3164 17.3259C13.5378 17.7305 13.6485 17.9328 13.835 17.9868C14.0215 18.0409 14.2109 17.9255 14.5897 17.6949L15.2936 17.2661C15.6723 17.0355 15.8617 16.9201 15.9106 16.7228C15.9595 16.5254 15.8488 16.3231 15.6273 15.9185C15.4169 15.5341 15.3118 15.342 15.2813 15.1731C15.2555 15.0306 15.2545 14.974 15.2748 14.8305C15.299 14.6604 15.4379 14.3814 15.7157 13.8234C16.0448 13.1622 16.2316 12.4058 16.2316 11.6021C16.2316 11.1463 16.1715 10.7057 16.0595 10.2891C16.9276 10.1361 17.6585 9.52884 17.9445 8.68533L17.9666 8.62006C18.0796 8.28688 17.8964 7.92675 17.5575 7.81569C17.2186 7.70464 16.8522 7.8847 16.7392 8.21789L16.7171 8.28315C16.5608 8.74402 16.1221 9.05488 15.6279 9.05488C15.5983 9.05488 15.5692 9.05684 15.5407 9.06061C14.7686 7.76706 13.4242 6.91077 11.8949 6.91077H9.19549C9.00688 6.91077 8.91257 6.91077 8.82083 6.89039C8.72908 6.87002 8.6424 6.82983 8.46903 6.74946L6.72807 5.94231C6.44039 5.80894 6.29656 5.74225 6.19404 5.72209C5.63525 5.61219 5.11835 6.06963 5.10718 6.6839C5.10514 6.7966 5.13705 6.96233 5.20089 7.2938C5.22624 7.42543 5.23891 7.49124 5.24375 7.53871C5.27305 7.82648 5.23115 7.99803 5.0743 8.23259C5.04843 8.27128 4.98547 8.34863 4.85968 8.50317Z" fill="#2B333B"/>
</svg>
