<svg xmlns="http://www.w3.org/2000/svg" width="25" height="25" viewBox="0 0 25 25">
  <g fill="none" fill-rule="evenodd">
    <polygon points="0 0 25 0 25 25 0 25"/>
    <path fill="#000" fill-rule="nonzero" d="M17.6545121,15.0821205 C17.6559927,15.4468977 17.5036174,15.7953957 17.2348206,16.0419983 C16.9660238,16.2886009 16.6057169,16.4104534 16.2346383,16.3768461 C14.8386695,16.2251627 13.4977431,15.7481472 12.3229635,14.9862849 C11.2260734,14.2892753 10.296102,13.3593039 9.60113656,12.2655998 C8.8344513,11.082109 8.35732746,9.73466153 8.2077567,8.32568318 C8.17502798,7.9635083 8.29602688,7.60425333 8.54119617,7.33567592 C8.78636546,7.0670985 9.13312843,6.91393092 9.49718561,6.91358827 L10.7884354,6.91360918 C11.4386882,6.90720931 11.9929268,7.38385453 12.0844775,8.03170927 C12.134899,8.41400905 12.2284072,8.78937773 12.3628536,9.14968089 C12.5408132,9.6231051 12.4269906,10.1568064 12.0696624,10.5181465 L11.759998,10.8278109 C12.2677717,11.6243916 12.9437146,12.3003342 13.7402955,12.8081076 L14.0516708,12.4967377 C14.4112974,12.1411133 14.9449988,12.0272907 15.4174488,12.2048854 C15.7787262,12.3396967 16.1540948,12.4332049 16.540253,12.484153 C17.1896622,12.5757687 17.6678384,13.1381139 17.6545156,13.7932001 L17.6545121,15.0821205 Z M4.00094229,20.9990577 L8.35774279,19.5467909 C8.64755107,19.4501881 8.96393745,19.4733208 9.23661253,19.6110496 C10.425343,20.2114801 11.7390912,20.522631 13.0733952,20.519155 C16.3275188,20.5178958 19.3017577,18.6785639 20.7587267,15.7633875 C21.3591572,14.574657 21.6703081,13.2609088 21.6668358,11.9291487 L21.6685716,11.4164084 C21.4279427,7.0547543 17.9452457,3.57205732 13.6467048,3.33316805 L13.0708513,3.33316415 C11.7390912,3.3296919 10.425343,3.64084279 9.23226493,4.24345775 C6.32143614,5.69824231 4.48210422,8.67248115 4.48084123,11.9291487 C4.47736897,13.2609088 4.78851986,14.574657 5.38895041,15.7633875 C5.52667924,16.0360626 5.54981188,16.3524489 5.45320912,16.6422572 L4.00094229,20.9990577 Z M23.9582969,11.9247099 C23.962467,13.6168549 23.5670025,15.2860781 22.8062681,16.7921545 C20.963541,20.4792043 17.1961718,22.8090247 13.0768258,22.8106159 C11.5471914,22.8146041 10.0362525,22.4920289 8.64437801,21.8666619 L2.55169263,23.897557 C1.65600708,24.1961189 0.803881118,23.3439929 1.10244297,22.4483074 L3.13333766,16.3556233 C2.50797095,14.9637704 2.18539557,13.4530533 2.1893803,11.9257181 C2.19097527,7.80382816 4.5207957,4.03645896 8.20349788,2.19591627 C9.71437754,1.43276741 11.3841551,1.03729378 13.0738385,1.04170314 L13.7098179,1.04344277 C19.2376897,1.34841095 23.6515891,5.76231032 23.9582969,11.3532952 L23.9582969,11.9247099 Z"/>
  </g>
</svg>
